<svg xmlns="http://www.w3.org/2000/svg" width="70" height="16" viewBox="0 0 70 16" fill="none">
  <path d="M2.88825 0H0.201416V15.7507H9.94853V13.4503H2.88825V0Z" fill="white"/>
  <path d="M14.3836 7.17041H11.7802V15.75H14.3836V7.17041Z" fill="white"/>
  <path d="M22.0477 15.4392L18.7362 4.57947H16.1328L19.6111 15.7502H24.4843L27.9626 4.57947H25.3381L22.0477 15.4392Z" fill="white"/>
  <path d="M34.4212 4.33191C31.0468 4.33191 28.9017 6.73623 28.9017 10.1555C28.9017 13.5545 30.9844 16 34.4212 16C37.045 16 38.9405 14.8394 39.6485 12.4559H37.0012C36.6058 13.5336 35.8761 14.1773 34.4391 14.1773C32.8563 14.1773 31.7529 13.0787 31.5447 10.924H39.8338C39.8734 10.6493 39.8941 10.3722 39.8956 10.0947C39.8962 6.61143 37.7302 4.33191 34.4212 4.33191ZM31.5651 9.11903C31.8363 7.10939 32.8983 6.1559 34.4212 6.1559C36.0244 6.1559 37.1074 7.33685 37.2328 9.11903H31.5651Z" fill="white"/>
  <path d="M55.1195 0H51.7457L45.2062 7.21234V0H42.5194V15.7507H45.2062V7.79267L52.4123 15.7507H55.8486L48.3095 7.4607L55.1195 0Z" fill="white"/>
  <path d="M59.6169 4.57947H57.0134V13.159H59.6169V4.57947Z" fill="white"/>
  <path d="M11.7806 4.57947H9.17712V7.17006H11.7806V4.57947Z" fill="white"/>
  <path d="M62.221 13.1599H59.6176V15.7505H62.221V13.1599Z" fill="white"/>
  <path d="M70 13.1599H67.3966V15.7505H70V13.1599Z" fill="white"/>
  <path d="M69.9998 7.17053V4.57995H67.3963V0H64.7929V4.57995H62.1895V7.17053H64.7929V13.1601H67.3963V7.17053H69.9998Z" fill="white"/>
</svg>